<svg width="40" height="40" viewBox="0 0 40 40" fill="none" xmlns="http://www.w3.org/2000/svg">
<path d="M28.0625 0H11.9375C5.375 0 0 5.375 0 11.9375V28.125C0 34.625 5.375 40 11.9375 40H28.125C34.625 40 40 34.625 40 28.0625V11.9375C40 5.375 34.625 0 28.0625 0ZM36 28.0625C36 32.4375 32.4375 35.9375 28.125 35.9375H11.9375C7.5625 35.9375 4.0625 32.375 4.0625 28.0625V11.9375C4.0625 7.5625 7.625 4.0625 11.9375 4.0625H28.125C32.5 4.0625 36 7.625 36 11.9375V28.0625Z" fill="#F15D92"/>
<path d="M20 9.625C14.3125 9.625 9.625 14.25 9.625 20C9.625 25.6875 14.25 30.375 20 30.375C25.6875 30.375 30.375 25.75 30.375 20C30.375 14.3125 25.6875 9.625 20 9.625ZM20 26.3125C16.5 26.3125 13.6875 23.5 13.6875 20C13.6875 16.5 16.5 13.6875 20 13.6875C23.5 13.6875 26.3125 16.5 26.3125 20C26.3125 23.5 23.5 26.3125 20 26.3125Z" fill="#F15D92"/>
<path d="M30.375 12.25C31.7557 12.25 32.875 11.1307 32.875 9.75C32.875 8.36929 31.7557 7.25 30.375 7.25C28.9943 7.25 27.875 8.36929 27.875 9.75C27.875 11.1307 28.9943 12.25 30.375 12.25Z" fill="#F15D92"/>
</svg>
