<svg width="159" height="30" viewBox="0 0 159 30" fill="none" xmlns="http://www.w3.org/2000/svg">
<path d="M51.36 6.2C52.848 6.2 54.136 6.448 55.224 6.944C56.328 7.44 57.176 8.144 57.768 9.056C58.36 9.968 58.656 11.048 58.656 12.296C58.656 13.528 58.36 14.608 57.768 15.536C57.176 16.448 56.328 17.152 55.224 17.648C54.136 18.128 52.848 18.368 51.36 18.368H47.976V23H44.088V6.2H51.36ZM51.144 15.2C52.312 15.2 53.2 14.952 53.808 14.456C54.416 13.944 54.72 13.224 54.72 12.296C54.72 11.352 54.416 10.632 53.808 10.136C53.2 9.624 52.312 9.368 51.144 9.368H47.976V15.2H51.144ZM73.4614 16.592C73.4614 16.64 73.4374 16.976 73.3894 17.6H63.6214C63.7974 18.4 64.2134 19.032 64.8694 19.496C65.5254 19.96 66.3414 20.192 67.3174 20.192C67.9894 20.192 68.5814 20.096 69.0934 19.904C69.6214 19.696 70.1094 19.376 70.5574 18.944L72.5494 21.104C71.3334 22.496 69.5574 23.192 67.2214 23.192C65.7654 23.192 64.4774 22.912 63.3574 22.352C62.2374 21.776 61.3734 20.984 60.7654 19.976C60.1574 18.968 59.8534 17.824 59.8534 16.544C59.8534 15.28 60.1494 14.144 60.7414 13.136C61.3494 12.112 62.1734 11.32 63.2134 10.76C64.2694 10.184 65.4454 9.896 66.7414 9.896C68.0054 9.896 69.1494 10.168 70.1734 10.712C71.1974 11.256 71.9974 12.04 72.5734 13.064C73.1654 14.072 73.4614 15.248 73.4614 16.592ZM66.7654 12.728C65.9174 12.728 65.2054 12.968 64.6294 13.448C64.0534 13.928 63.7014 14.584 63.5734 15.416H69.9334C69.8054 14.6 69.4534 13.952 68.8774 13.472C68.3014 12.976 67.5974 12.728 66.7654 12.728ZM88.9313 23V15.272L85.0673 21.752H83.4833L79.7153 15.248V23H76.3313V10.088H80.2433L84.3713 17.552L88.7633 10.088H92.2673L92.3153 23H88.9313Z" fill="white"/>
<path d="M107.566 19.4H99.7656L98.2776 23H94.2936L101.782 6.2H105.622L113.134 23H109.054L107.566 19.4ZM106.342 16.448L103.678 10.016L101.014 16.448H106.342ZM120.761 18.104H118.817V23H115.073V10.088H118.817V15.104H120.833L124.337 10.088H128.321L123.809 16.28L128.633 23H124.217L120.761 18.104ZM140.336 16.256C141.856 16.768 142.616 17.792 142.616 19.328C142.616 20.496 142.176 21.4 141.296 22.04C140.416 22.68 139.104 23 137.36 23H130.472V10.088H137.072C138.688 10.088 139.952 10.384 140.864 10.976C141.776 11.552 142.232 12.368 142.232 13.424C142.232 14.064 142.064 14.632 141.728 15.128C141.408 15.608 140.944 15.984 140.336 16.256ZM133.904 15.392H136.736C138.048 15.392 138.704 14.928 138.704 14C138.704 13.088 138.048 12.632 136.736 12.632H133.904V15.392ZM137.048 20.456C138.424 20.456 139.112 19.984 139.112 19.04C139.112 18.544 138.952 18.184 138.632 17.96C138.312 17.72 137.808 17.6 137.12 17.6H133.904V20.456H137.048ZM150.418 9.896C152.418 9.896 153.954 10.376 155.026 11.336C156.098 12.28 156.634 13.712 156.634 15.632V23H153.13V21.392C152.426 22.592 151.114 23.192 149.194 23.192C148.202 23.192 147.338 23.024 146.602 22.688C145.882 22.352 145.33 21.888 144.946 21.296C144.562 20.704 144.37 20.032 144.37 19.28C144.37 18.08 144.818 17.136 145.714 16.448C146.626 15.76 148.026 15.416 149.914 15.416H152.89C152.89 14.6 152.642 13.976 152.146 13.544C151.65 13.096 150.906 12.872 149.914 12.872C149.226 12.872 148.546 12.984 147.874 13.208C147.218 13.416 146.658 13.704 146.194 14.072L144.85 11.456C145.554 10.96 146.394 10.576 147.37 10.304C148.362 10.032 149.378 9.896 150.418 9.896ZM150.13 20.672C150.77 20.672 151.338 20.528 151.834 20.24C152.33 19.936 152.682 19.496 152.89 18.92V17.6H150.322C148.786 17.6 148.018 18.104 148.018 19.112C148.018 19.592 148.202 19.976 148.57 20.264C148.954 20.536 149.474 20.672 150.13 20.672Z" fill="#FFC53C"/>
<path d="M10.9837 30C4.92732 30 0 25.0727 0 19.0167C0 13.354 9.03582 1.74909 10.0659 0.444678C10.2876 0.164075 10.6259 0 10.9833 0C11.3407 0 11.6789 0.163685 11.9007 0.444678C12.9311 1.74948 21.9666 13.354 21.9666 19.0167C21.967 25.0727 17.04 30 10.9837 30ZM10.9837 3.08547C7.92548 7.14213 2.33836 15.3186 2.33836 19.0167C2.33836 23.7835 6.21653 27.6616 10.9837 27.6616C15.7508 27.6616 19.629 23.7839 19.629 19.0167C19.6286 15.3186 14.0415 7.14213 10.9837 3.08547Z" fill="white"/>
<path d="M10.9837 25.3248C10.3379 25.3248 9.81449 24.8014 9.81449 24.1557C9.81449 23.5099 10.3379 22.9865 10.9837 22.9865C13.1724 22.9865 14.9534 21.2066 14.9534 19.0179C14.9534 18.3721 15.4768 17.8487 16.1226 17.8487C16.768 17.8487 17.2918 18.3721 17.2918 19.0179C17.2914 22.4954 14.4616 25.3248 10.9837 25.3248Z" fill="white"/>
</svg>
