<svg width="40" height="40" viewBox="0 0 40 40" fill="none" xmlns="http://www.w3.org/2000/svg">
<path d="M28.0625 0H11.9375C5.375 0 0 5.375 0 11.9375V28.125C0 34.625 5.375 40 11.9375 40H28.125C34.625 40 40 34.625 40 28.0625V11.9375C40 5.375 34.625 0 28.0625 0ZM36 28.0625C36 32.4375 32.4375 35.9375 28.125 35.9375H11.9375C7.5625 35.9375 4.0625 32.375 4.0625 28.0625V11.9375C4.0625 7.5625 7.625 4.0625 11.9375 4.0625H28.125C32.5 4.0625 36 7.625 36 11.9375V28.0625Z" fill="#E5E5E5"/>
<path d="M30.0625 10.6875H9.9375C8.875 10.6875 8.0625 11.5 8.0625 12.5625V13.75L20 20.625L31.9375 13.75V12.5625C31.9375 11.5 31.125 10.6875 30.0625 10.6875Z" fill="#E5E5E5"/>
<path d="M8.0625 17.1875V27.4375C8.0625 28.5 8.875 29.3125 9.9375 29.3125H30.0625C31.125 29.3125 31.9375 28.5 31.9375 27.4375V17.1875L20 24.0625L8.0625 17.1875Z" fill="#E5E5E5"/>
</svg>
