<svg width="40" height="40" viewBox="0 0 40 40" fill="none" xmlns="http://www.w3.org/2000/svg">
<path d="M28.0625 0H11.9375C5.375 0 0 5.375 0 11.9375V28.125C0 34.625 5.375 40 11.9375 40H28.125C34.625 40 40 34.625 40 28.0625V11.9375C40 5.375 34.625 0 28.0625 0ZM36 28.0625C36 32.4375 32.4375 35.9375 28.125 35.9375H11.9375C7.5625 35.9375 4.0625 32.375 4.0625 28.0625V11.9375C4.0625 7.5625 7.625 4.0625 11.9375 4.0625H28.125C32.5 4.0625 36 7.625 36 11.9375V28.0625Z" fill="#E5E5E5"/>
<path d="M20 8.5C15 8.5 10.875 12.5625 10.875 17.625C10.875 26.6875 20 31.5 20 31.5C20 31.5 29.125 26.75 29.125 17.6875C29.125 12.625 25 8.5 20 8.5ZM20 22.75C17.1875 22.75 14.9375 20.4375 14.9375 17.6875C14.9375 14.9375 17.25 12.625 20 12.625C22.75 12.625 25.0625 14.9375 25.0625 17.6875C25.0625 20.4375 22.8125 22.75 20 22.75Z" fill="#E5E5E5"/>
</svg>
