<svg width="65" height="64" viewBox="0 0 65 64" fill="none" xmlns="http://www.w3.org/2000/svg">
<path d="M39.3 18.2H43.6C44.2 18.2 44.7 17.7 44.7 17.1C44.7 16.5 44.2 16 43.6 16H39.3C38.7 16 38.2 16.5 38.2 17.1C38.3 17.7 38.8 18.2 39.3 18.2Z" fill="black"/>
<path d="M39.3 15H43.6C44.2 15 44.7 14.5 44.7 13.9C44.7 13.3 44.2 12.8 43.6 12.8H39.3C38.7 12.8 38.2 13.3 38.2 13.9C38.2 14.5 38.8 15 39.3 15Z" fill="black"/>
<path d="M39.3 11.8H43.6C44.2 11.8 44.7 11.3 44.7 10.7C44.7 10.1 44.2 9.6 43.6 9.6H39.3C38.7 9.6 38.2 10.1 38.2 10.7C38.3 11.3 38.8 11.8 39.3 11.8Z" fill="black"/>
<path d="M39.3 21.4H43.6C44.2 21.4 44.7 20.9 44.7 20.3C44.7 19.7 44.2 19.2 43.6 19.2H39.3C38.7 19.2 38.2 19.7 38.2 20.3C38.3 20.9 38.8 21.4 39.3 21.4Z" fill="black"/>
<path d="M39.3 24.6H43.6C44.2 24.6 44.7 24.1 44.7 23.5C44.7 22.9 44.2 22.4 43.6 22.4H39.3C38.7 22.4 38.2 22.9 38.2 23.5C38.3 24.1 38.8 24.6 39.3 24.6Z" fill="black"/>
<path d="M5.2 58.7C6.4 59.9 8.5 59.9 9.7 58.7C10.9 57.5 10.9 55.4 9.7 54.2C8.5 53 6.4 53 5.2 54.2C4 55.5 4 57.5 5.2 58.7ZM6.7 55.7C7.1 55.3 7.8 55.3 8.2 55.7C8.6 56.1 8.6 56.8 8.2 57.2C7.8 57.6 7.1 57.6 6.7 57.2C6.3 56.8 6.3 56.1 6.7 55.7Z" fill="black"/>
<path d="M63 42H57C56.4 42 56 42.4 56 43V46.5H35.5V39L41.6 32.9C41.6 32.9 41.7 32.9 41.7 33C43.7 33.8 45.8 34.2 47.9 34.2C55.1 34.2 61.6 29.6 64 22.8C64 22.7 64.1 22.6 64.1 22.4C64.1 21.8 63.6 21.3 63 21.3H49V12.8H63C63.1 12.8 63.2 12.8 63.4 12.7C64 12.5 64.2 11.9 64.1 11.3C61.9 5.6 56.9 1.4 50.8 0.3C41.5 -1.3 32.7 4.9 31.1 14.2C30.9 15.2 30.8 16.2 30.8 17.1C30.8 18.7 31 20.3 31.5 21.8L26.5 26.8V16.5C26.5 9.9 21.1 4.5 14.5 4.5H8V1C8 0.4 7.6 0 7 0H1C0.4 0 0 0.4 0 1V21C0 21.6 0.4 22 1 22H7C7.6 22 8 21.6 8 21V17.5H13.5V39.8L2.2 51.2C-0.7 54.1 -0.7 58.8 2.2 61.7C5.1 64.6 9.8 64.6 12.7 61.7L23.1 51.3C24.7 56 29.2 59.4 34.4 59.4H56V63C56 63.6 56.4 64 57 64H63C63.6 64 64 63.6 64 63V43C64 42.4 63.6 42 63 42ZM61.3 23.5C59 28.4 54.3 31.6 48.9 32V23.5H61.3ZM46 2.3C52.4 1.5 58.6 4.9 61.3 10.7H47.9C47.3 10.7 46.8 11.2 46.8 11.8V32C45.3 31.9 43.8 31.6 42.4 31C42.2 30.9 41.9 30.8 41.7 30.7C38.7 29.3 36.2 27 34.7 24C34.4 23.5 34.2 23 34 22.5C33.9 22.3 33.9 22.2 33.8 22.1L33.7 21.8C33.4 20.9 33.2 19.9 33.1 18.9C32 10.8 37.8 3.3 46 2.3ZM6 20H2V2H6V20ZM14.5 15.5H8V6.5H14.5C20 6.5 24.5 11 24.5 16.5V28.8L15.5 37.8V16.5C15.5 15.9 15.1 15.5 14.5 15.5ZM11.2 60.2C9.1 62.3 5.7 62.3 3.6 60.2C1.5 58.1 1.5 54.7 3.6 52.7L6.6 49.7L14.1 57.2L11.2 60.2ZM8.2 48.2L32.3 24.1C32.4 24.3 32.5 24.4 32.5 24.6C32.5 24.8 32.7 24.9 32.8 25.1C33 25.4 33.1 25.7 33.3 26C33.4 26.1 33.4 26.3 33.5 26.4C33.8 26.8 34.1 27.2 34.4 27.6C34.5 27.7 34.5 27.7 34.6 27.8C34.9 28.1 35.1 28.4 35.4 28.7C35.5 28.8 35.6 28.9 35.8 29.1C36 29.3 36.3 29.6 36.5 29.8C36.6 29.9 36.8 30 36.9 30.2C37.2 30.4 37.4 30.6 37.7 30.8C37.8 30.9 38 31 38.1 31.1C38.4 31.3 38.7 31.5 39.1 31.7C39.2 31.8 39.3 31.8 39.4 31.9C39.4 31.9 39.4 31.9 39.5 31.9L15.8 55.7L8.2 48.2ZM34.5 57.5C29.8 57.5 25.8 54.2 24.8 49.7L33.5 41V47.5C33.5 48.1 33.9 48.5 34.5 48.5H56V57.5H34.5ZM62 62H58V44H62V62Z" fill="black"/>
</svg>
