<svg width="64" height="65" viewBox="0 0 64 65" fill="none" xmlns="http://www.w3.org/2000/svg">
<path d="M60.8 22.1184L62.9333 23.1851V15.4667L32 0L1.06667 15.4667V23.1851L3.2 22.1184V61.9925H0V64.1259H64V61.9925H60.8V22.1184ZM3.2 16.7851L32 2.38507L60.8 16.7851V19.7333L32 5.33333L3.2 19.7333V16.7851ZM19.4517 13.9925H44.5483L50.9483 17.1925H13.0517L19.4517 13.9925ZM23.7184 11.8592L32 7.7184L40.2816 11.8592H23.7184ZM9.6 19.3259H54.4V22.5259H9.6V19.3259ZM5.33333 61.9925V21.0517L7.46667 19.9851V61.9925H5.33333ZM16 61.9925V59.8592H30.9333V61.9925H16ZM16 51.3259H18.1333V57.7259H16V51.3259ZM16 47.0592H30.9333V49.1925H16V47.0592ZM16 42.7925H30.9333V44.9259H16V42.7925ZM16 34.2592H18.1333V40.6592H16V34.2592ZM30.9333 32.1259H16V29.9925H30.9333V32.1259ZM30.9333 40.6592H28.8V34.2592H30.9333V40.6592ZM26.6667 35.7675V40.6592H21.7749L26.6667 35.7675ZM20.2667 39.1509V34.2592H25.1584L20.2667 39.1509ZM48 49.1925H33.0667V47.0592H48V49.1925ZM48 57.7259H45.8667V51.3259H48V57.7259ZM26.6667 52.8341V57.7259H21.7749L26.6667 52.8341ZM20.2667 56.2176V51.3259H25.1584L20.2667 56.2176ZM28.8 51.3259H30.9333V57.7259H28.8V51.3259ZM33.0667 51.3259H35.2V57.7259H33.0667V51.3259ZM37.3333 51.3259H42.2251L37.3333 56.2176V51.3259ZM43.7333 52.8341V57.7259H38.8416L43.7333 52.8341ZM33.0667 61.9925V59.8592H48V61.9925H33.0667ZM50.1333 61.9925V44.9259H33.0667V27.8592H13.8667V61.9925H9.6V24.6592H54.4V61.9925H50.1333ZM56.5333 61.9925V19.9851L58.6667 21.0517V61.9925H56.5333Z" fill="black"/>
</svg>
