<svg width="65" height="64" viewBox="0 0 65 64" fill="none" xmlns="http://www.w3.org/2000/svg">
<path d="M33.1 34.1H31V31.1C33.7 29.9 35.6 27.4 36.2 24.5H36.4C38.8 24.5 40.7 22.6 40.6 20.2C40.6 18.2 39.1 16.4 37.2 16C38 15.4 38.5 14.4 38.5 13.4V9.6C38.5 4.3 34.2 0 28.9 0H20.4C15.1 0 10.8 4.3 10.8 9.6V13.5C10.8 14.5 11.3 15.5 12.1 16.1C9.8 16.6 8.3 18.8 8.7 21.1C9.1 23.1 10.8 24.5 12.9 24.5H13C13.5 27.4 15.5 29.9 18.2 31.1V34.1H16C7.2 34.1 0 41.3 0 50.1V62.9C0 63.5 0.5 64 1.1 64H48C48.6 64 49.1 63.5 49.1 62.9V50.1C49.1 41.3 41.9 34.1 33.1 34.1ZM38.4 20.3C38.4 21.5 37.4 22.4 36.3 22.4V18.1C37.4 18.1 38.4 19.1 38.4 20.3ZM36.2 8.3L34 8C33.6 5.9 32.5 3.9 30.9 2.5C33.6 3.2 35.7 5.5 36.2 8.3ZM25.6 2.2C28.5 2.6 30.9 4.7 31.7 7.6L25.6 6.6V2.2ZM23.5 2.2V6.5L17.4 7.5C18.2 4.7 20.5 2.6 23.5 2.2ZM15 4.3C15.9 3.4 17 2.8 18.2 2.4C16.6 3.8 15.5 5.8 15.1 7.9L12.9 8.3C13.2 6.8 13.9 5.4 15 4.3ZM12.8 22.4C11.6 22.4 10.7 21.4 10.7 20.3C10.7 19.2 11.7 18.2 12.8 18.2V22.4ZM12.8 13.6C12.8 13.5 12.8 13.5 12.8 13.4V10.4L24 8.6C24.4 8.5 24.7 8.5 25.1 8.6L36.3 10.5V13.5C36.3 14.1 35.8 14.6 35.2 14.6C35.1 14.6 35.1 14.6 35 14.6L25.4 13C25.1 13 24.8 12.9 24.5 12.9C24.2 12.9 23.9 12.9 23.6 13L14 14.5C13.4 14.6 12.9 14.2 12.8 13.6ZM14.9 22.8V16.5L24 15C24.4 14.9 24.7 14.9 25.1 15L34.2 16.5V22.8C34.2 25.8 32.3 28.4 29.5 29.4C29.2 29.5 28.9 29.6 28.6 29.7C28.1 29.8 27.6 29.9 27.1 29.9H22C21.5 29.9 21 29.8 20.5 29.7C20.2 29.6 19.9 29.5 19.6 29.4C16.8 28.4 14.9 25.8 14.9 22.8ZM28.8 31.8V37.3C28.8 39.1 27.4 40.5 25.6 40.5H23.5C21.7 40.5 20.3 39.1 20.3 37.3V31.8C20.5 31.8 20.6 31.8 20.8 31.9C20.9 31.9 21 31.9 21.1 31.9C21.4 31.9 21.7 31.9 22 31.9H27.1C27.4 31.9 27.7 31.9 28 31.9C28.1 31.9 28.2 31.9 28.3 31.9C28.5 31.9 28.6 31.9 28.8 31.8ZM46.9 61.9H38.4V48C38.4 47.4 37.9 46.9 37.3 46.9C36.7 46.9 36.2 47.4 36.2 48V61.9H12.8V48C12.8 47.4 12.3 46.9 11.7 46.9C11.1 46.9 10.6 47.4 10.6 48V61.9H2.1V50.1C2.1 42.4 8.3 36.2 16 36.2H18.1V37.3C18.1 40.2 20.5 42.6 23.4 42.6H25.5C28.4 42.6 30.8 40.2 30.8 37.3V36.2H32.9C40.6 36.2 46.8 42.4 46.8 50.1V61.9H46.9Z" fill="black"/>
<path d="M61.1 11.9C59.2 10.3 56.3 9.5 52.5 9.5H51.5L51.7 6.7H61.4C62 6.7 62.4 6.3 62.4 5.7V1C62.4 0.4 62 0 61.4 0H45.9C45.4 0 45 0.4 44.9 0.9L43.6 15.2C43.6 15.5 43.7 15.8 43.9 16C44.1 16.2 44.4 16.3 44.6 16.3H51.1C53.6 16.3 54.7 16.7 55.2 17C55.8 17.4 56.1 17.9 56.1 18.6C56.1 19.3 55.8 19.8 55.3 20.2C54.6 20.7 53.6 20.9 52.4 20.9C51.2 20.9 50 20.7 48.8 20.3C47.7 19.9 46.6 19.4 45.8 18.8C45.6 18.6 45.3 18.6 45 18.6C44.7 18.7 44.5 18.9 44.3 19.1L42 23.6C41.8 24 41.9 24.6 42.3 24.9C43.6 25.8 45.2 26.6 47 27.1C48.8 27.6 50.7 27.8 52.5 27.8C55 27.8 57.1 27.4 58.8 26.6C60.6 25.8 61.9 24.6 62.8 23.2C63.7 21.8 64.1 20.2 64.1 18.5C64 15.7 63 13.5 61.1 11.9ZM61 22.1C60.3 23.2 59.3 24.1 57.9 24.8C56.5 25.5 54.6 25.8 52.5 25.8C50.8 25.8 49.1 25.6 47.5 25.1C46.2 24.8 45.1 24.3 44.1 23.7L45.5 21C46.3 21.5 47.2 21.9 48.2 22.2C49.5 22.6 51 22.8 52.4 22.8C54.1 22.8 55.4 22.4 56.4 21.8C57.5 21 58.1 19.9 58.1 18.5C58.1 17.1 57.5 15.9 56.3 15.2C55.2 14.5 53.6 14.2 51.2 14.2H45.8L46.9 2H60.5V4.7H50.9C50.4 4.7 49.9 5.1 49.9 5.6L49.5 10.4C49.5 10.7 49.6 11 49.8 11.2C50 11.4 50.3 11.5 50.5 11.5H52.6C55.9 11.5 58.4 12.1 59.9 13.4C61.4 14.6 62.1 16.3 62.1 18.4C62 19.8 61.7 21 61 22.1Z" fill="black"/>
</svg>
