<svg width="63" height="64" viewBox="0 0 63 64" fill="none" xmlns="http://www.w3.org/2000/svg">
<path d="M62.5 39.7L56.6 20C55.9 17.6 53.7 15.9 51.1 15.9H48.4V10.2C48.4 4.6 43.8 0 38.1 0H24.4C18.7 0 14.1 4.6 14.1 10.3V16H11.4C8.9 16 6.6 17.6 5.9 20.1L0 39.7C0 39.7 0 39.7 0 39.8C0 40 0 40.1 0 40.3C0 40.3 0 40.3 0 40.4L6.9 63.3C7 63.7 7.5 64 8 64H54.6C55.1 64 55.5 63.7 55.7 63.2L62.6 40.3C62.6 40.3 62.6 40.3 62.6 40.2C62.6 40.1 62.6 40 62.6 39.9C62.5 39.9 62.5 39.8 62.5 39.7ZM16.4 10.3C16.4 5.9 20 2.3 24.4 2.3H38.1C42.5 2.3 46.1 5.9 46.1 10.3V16H43.8V10.3C43.8 7.1 41.2 4.6 38.1 4.6H24.4C21.2 4.6 18.7 7.2 18.7 10.3V16H16.4V10.3ZM32.4 33.1H30.1C28.2 33.1 26.7 34.6 26.7 36.5V38.8H16.8L23 18.3H39.6L45.8 38.9H35.9V36.6C35.8 34.7 34.3 33.1 32.4 33.1ZM29 38.9V36.6C29 36 29.5 35.5 30.1 35.5H32.4C33 35.5 33.5 36 33.5 36.6V38.9H29ZM33.5 41.1V45.7C33.5 46.3 33 46.8 32.4 46.8H30.1C29.5 46.8 29 46.3 29 45.7V41.1H33.5ZM41.5 16H21V10.3C21 8.4 22.5 6.9 24.4 6.9H38.1C40 6.9 41.5 8.4 41.5 10.3V16ZM8.1 20.7C8.5 19.2 9.9 18.2 11.4 18.3H20.6L14.4 38.9H2.6L8.1 20.7ZM8.8 61.7L2.6 41.1H14.4L20.6 61.7H8.8ZM23 61.7L16.8 41.1H26.7V45.7C26.7 47.6 28.2 49.1 30.1 49.1H32.4C34.3 49.1 35.8 47.6 35.8 45.7V41.1H45.7L39.5 61.7H23ZM53.7 61.7H41.9L48.1 41.1H59.9L53.7 61.7ZM48.1 38.9L41.9 18.3H51.1C52.6 18.3 54 19.3 54.4 20.7L59.8 38.8H48.1V38.9Z" fill="black"/>
</svg>
