<svg width="40" height="40" viewBox="0 0 40 40" fill="none" xmlns="http://www.w3.org/2000/svg">
<path d="M28.0625 0H11.9375C5.375 0 0 5.375 0 11.9375V28.125C0 34.625 5.375 40 11.9375 40H28.125C34.625 40 40 34.625 40 28.0625V11.9375C40 5.375 34.625 0 28.0625 0ZM36 28.0625C36 32.4375 32.4375 35.9375 28.125 35.9375H11.9375C7.5625 35.9375 4.0625 32.375 4.0625 28.0625V11.9375C4.0625 7.5625 7.625 4.0625 11.9375 4.0625H28.125C32.5 4.0625 36 7.625 36 11.9375V28.0625Z" fill="#E5E5E5"/>
<path d="M23.125 26.5C21.1875 25.6875 19.1875 24.375 17.375 22.625C15.625 20.875 14.3125 18.875 13.5 16.875L17 14.125L13.125 8.0625C11.6875 8.125 10.4375 8.5625 9.5 9.5C6.3125 12.6875 8.5 19.9375 14.3125 25.75C20.125 31.5625 27.375 33.6875 30.5625 30.5625C31.4375 29.6875 31.9375 28.4375 32 26.9375L25.9375 23.0625L23.125 26.5Z" fill="#E5E5E5"/>
</svg>
