<svg width="128" height="120" viewBox="0 0 128 120" fill="none" xmlns="http://www.w3.org/2000/svg">
<path d="M121.6 64.2666H119.467V19.4666C119.467 8.79985 110.933 0.266602 100.267 0.266602C90.8242 0.266602 84.033 7.2681 83.2732 17.5269C78.316 18.4639 74.6667 22.7334 74.6667 27.9999C74.6667 29.2799 75.52 30.1331 76.8 30.1331H93.8668C95.1468 30.1331 96 29.2799 96 27.9999C96 22.7916 92.4315 18.5576 87.5583 17.5581C88.1957 10.7791 92.2673 4.5331 100.267 4.5331C108.587 4.5331 115.2 11.1464 115.2 19.4664V64.2664H50.9938C50.0288 59.3461 45.7743 55.7331 40.5335 55.7331C38.4002 53.1731 35.4135 51.4664 32.0003 51.4664C27.947 51.4664 24.3203 53.8131 22.6135 57.2264C20.9067 56.3731 18.9867 55.7331 17.0667 55.7331C11.826 55.7331 7.5715 59.3461 6.6065 64.2664H6.4C2.77325 64.2664 0 67.0396 0 70.6664C0 74.2931 2.77325 77.0664 6.4 77.0664H8.96375L14.72 99.8931C16.4268 106.506 22.4 111.2 29.2267 111.2H30.9335L28.1602 116.747C27.5203 117.813 27.947 119.093 29.0135 119.52C29.2267 119.733 29.6535 119.733 29.8668 119.733C30.72 119.733 31.36 119.306 31.7868 118.666L35.52 111.2H94.72L98.3467 118.453C98.7735 119.306 99.4135 119.733 100.267 119.733C100.693 119.733 100.907 119.733 101.12 119.306C101.973 118.88 102.4 117.6 101.973 116.533L99.301 111.188C105.906 110.954 111.618 106.341 113.28 100.106L119.09 77.0664H121.6C125.227 77.0664 128 74.2931 128 70.6664C128 67.0398 125.227 64.2666 121.6 64.2666ZM91.52 25.8666H79.36C80.2132 23.3066 82.7733 21.5999 85.5468 21.5999C88.3203 21.5999 90.6667 23.3066 91.52 25.8666ZM17.0667 59.9999C18.9867 59.9999 20.6935 60.8531 22.1868 62.3466C22.6135 62.9866 23.4667 63.1998 24.32 62.9866C25.1733 62.7733 25.6 62.1334 25.8132 61.2799C26.4532 58.0798 29.0132 55.7331 32.2132 55.7331C34.56 55.7331 36.6932 56.7999 37.76 58.9331C38.1867 59.7864 39.2533 60.2131 40.1068 59.9999C40.32 59.9999 40.5335 59.9999 40.7467 59.9999C43.52 59.9999 45.8668 61.7066 46.72 64.2666H11.0933C11.9468 61.7066 14.2932 59.9999 17.0667 59.9999ZM109.44 98.8266C108.16 103.52 103.893 106.933 98.9867 106.933H29.44C24.5333 106.933 20.2668 103.52 18.9867 98.8266L13.44 77.0666H114.56L109.44 98.8266ZM121.6 72.7999H117.333H10.6667H6.4C5.12 72.7999 4.26675 71.9466 4.26675 70.6666C4.26675 69.3866 5.12 68.5334 6.4 68.5334H8.53325H49.0665H121.6C122.88 68.5334 123.733 69.3866 123.733 70.6666C123.733 71.9466 122.88 72.7999 121.6 72.7999Z" fill="black"/>
</svg>
