<svg width="40" height="40" viewBox="0 0 40 40" fill="none" xmlns="http://www.w3.org/2000/svg">
<path d="M28.0625 0H11.9375C5.375 0 0 5.375 0 11.9375V28.125C0 34.625 5.375 40 11.9375 40H28.125C34.625 40 40 34.625 40 28.0625V11.9375C40 5.375 34.625 0 28.0625 0ZM36 28.0625C36 32.4375 32.4375 35.9375 28.125 35.9375H11.9375C7.5625 35.9375 4.0625 32.375 4.0625 28.0625V11.9375C4.0625 7.5625 7.625 4.0625 11.9375 4.0625H28.125C32.5 4.0625 36 7.625 36 11.9375V28.0625Z" fill="#5A99D4"/>
<path d="M32.1875 13.8125H28.6875C28.3125 13.8125 28 14.0625 27.9375 14.4375C27.5 16.1875 25.9375 21.375 23.0625 21.875C22.8125 21.9375 22.5625 21.75 22.5625 21.5V14.25C22.5625 13.8125 22.1875 13.4375 21.75 13.4375H16.8125C16.5 13.4375 16.25 13.8125 16.5 14.125C16.9375 14.625 17.375 15.5 17.4375 16.9375V21.5C17.4375 21.75 17.1875 21.9375 16.9375 21.875C14.0625 21.3125 12.5 16.1875 12.0625 14.4375C12 14.0625 11.625 13.8125 11.3125 13.8125H7.8125C7.3125 13.8125 6.9375 14.3125 7.0625 14.8125C7.8125 18.125 10.9375 28.75 20 28.75H21.75C22.1875 28.75 22.5625 28.375 22.5625 27.9375V26.875C22.5625 26.125 23.4375 25.8125 23.9375 26.3125L25.5 28C25.9375 28.5 26.5625 28.75 27.25 28.75H32.25C32.625 28.75 32.75 28.3125 32.5625 28.0625L28.875 24.0625C31.4375 20.8125 32.5625 16.625 33 14.8125C33.0625 14.25 32.6875 13.8125 32.1875 13.8125Z" fill="#5A99D4"/>
</svg>
