<svg width="32" height="32" viewBox="0 0 32 32" fill="none" xmlns="http://www.w3.org/2000/svg">
<path d="M22.5 0H9.5C4.3 0 0 4.3 0 9.5V32H22.5C27.8 32 32 27.7 32 22.5V9.5C32 4.3 27.7 0 22.5 0ZM28.8 22.5C28.8 26 26 28.8 22.5 28.8H3.2V9.5C3.2 6 6 3.2 9.5 3.2H22.4C25.9 3.2 28.7 6 28.7 9.5V22.5H28.8Z" fill="white"/>
<path d="M18.5 21.2C16.9 20.5 15.3 19.5 13.9 18.1C12.5 16.7 11.4 15.1 10.8 13.5L13.6 11.3L10.5 6.4C9.3 6.5 8.3 6.9 7.6 7.6C5.1 10.1 6.8 16 11.4 20.6C16 25.2 21.9 27 24.4 24.4C25.1 23.7 25.5 22.7 25.5 21.5L20.6 18.4L18.5 21.2Z" fill="white"/>
</svg>
